<mxfile host="app.diagrams.net" agent="Mozilla/5.0 (Windows NT 10.0; Win64; x64) AppleWebKit/537.36 (KHTML, like Gecko) Chrome/131.0.0.0 Safari/537.36 Edg/131.0.0.0" version="25.0.3">
  <diagram id="C5RBs43oDa-KdzZeNtuy" name="Page-1">
    <mxGraphModel dx="1090" dy="596" grid="1" gridSize="10" guides="1" tooltips="1" connect="1" arrows="1" fold="1" page="1" pageScale="1" pageWidth="827" pageHeight="1169" math="0" shadow="0">
      <root>
        <mxCell id="WIyWlLk6GJQsqaUBKTNV-0" />
        <mxCell id="WIyWlLk6GJQsqaUBKTNV-1" parent="WIyWlLk6GJQsqaUBKTNV-0" />
        <mxCell id="K80prXzXv1RAaiCHoPPO-16" style="edgeStyle=orthogonalEdgeStyle;rounded=0;orthogonalLoop=1;jettySize=auto;html=1;exitX=0.5;exitY=0.5;exitDx=0;exitDy=15;exitPerimeter=0;" edge="1" parent="WIyWlLk6GJQsqaUBKTNV-1" source="K80prXzXv1RAaiCHoPPO-0" target="K80prXzXv1RAaiCHoPPO-2">
          <mxGeometry relative="1" as="geometry" />
        </mxCell>
        <mxCell id="K80prXzXv1RAaiCHoPPO-0" value="Start" style="html=1;dashed=0;whiteSpace=wrap;shape=mxgraph.dfd.start" vertex="1" parent="WIyWlLk6GJQsqaUBKTNV-1">
          <mxGeometry x="290" y="10" width="80" height="30" as="geometry" />
        </mxCell>
        <mxCell id="K80prXzXv1RAaiCHoPPO-17" style="edgeStyle=orthogonalEdgeStyle;rounded=0;orthogonalLoop=1;jettySize=auto;html=1;exitX=0.5;exitY=1;exitDx=0;exitDy=0;entryX=0.5;entryY=0;entryDx=0;entryDy=0;" edge="1" parent="WIyWlLk6GJQsqaUBKTNV-1" source="K80prXzXv1RAaiCHoPPO-2" target="K80prXzXv1RAaiCHoPPO-4">
          <mxGeometry relative="1" as="geometry" />
        </mxCell>
        <mxCell id="K80prXzXv1RAaiCHoPPO-20" style="edgeStyle=orthogonalEdgeStyle;rounded=0;orthogonalLoop=1;jettySize=auto;html=1;exitX=0;exitY=0.5;exitDx=0;exitDy=0;" edge="1" parent="WIyWlLk6GJQsqaUBKTNV-1" source="K80prXzXv1RAaiCHoPPO-2" target="K80prXzXv1RAaiCHoPPO-3">
          <mxGeometry relative="1" as="geometry" />
        </mxCell>
        <mxCell id="K80prXzXv1RAaiCHoPPO-2" value="Initialize Server" style="rounded=1;whiteSpace=wrap;html=1;fontSize=12;glass=0;strokeWidth=1;shadow=0;" vertex="1" parent="WIyWlLk6GJQsqaUBKTNV-1">
          <mxGeometry x="270" y="80" width="120" height="40" as="geometry" />
        </mxCell>
        <mxCell id="K80prXzXv1RAaiCHoPPO-3" value="Packet Sniffing for Server" style="rounded=1;whiteSpace=wrap;html=1;fontSize=12;glass=0;strokeWidth=1;shadow=0;" vertex="1" parent="WIyWlLk6GJQsqaUBKTNV-1">
          <mxGeometry x="80" y="80" width="120" height="40" as="geometry" />
        </mxCell>
        <mxCell id="K80prXzXv1RAaiCHoPPO-18" style="edgeStyle=orthogonalEdgeStyle;rounded=0;orthogonalLoop=1;jettySize=auto;html=1;exitX=1;exitY=0.5;exitDx=0;exitDy=0;" edge="1" parent="WIyWlLk6GJQsqaUBKTNV-1" source="K80prXzXv1RAaiCHoPPO-4" target="K80prXzXv1RAaiCHoPPO-5">
          <mxGeometry relative="1" as="geometry" />
        </mxCell>
        <mxCell id="K80prXzXv1RAaiCHoPPO-21" style="edgeStyle=orthogonalEdgeStyle;rounded=0;orthogonalLoop=1;jettySize=auto;html=1;exitX=0.5;exitY=1;exitDx=0;exitDy=0;curved=1;" edge="1" parent="WIyWlLk6GJQsqaUBKTNV-1" source="K80prXzXv1RAaiCHoPPO-4">
          <mxGeometry relative="1" as="geometry">
            <mxPoint x="330" y="140" as="targetPoint" />
            <Array as="points">
              <mxPoint x="330" y="260" />
              <mxPoint x="230" y="260" />
              <mxPoint x="230" y="140" />
            </Array>
          </mxGeometry>
        </mxCell>
        <mxCell id="K80prXzXv1RAaiCHoPPO-4" value="Client Connection Request?" style="rhombus;whiteSpace=wrap;html=1;shadow=0;fontFamily=Helvetica;fontSize=12;align=center;strokeWidth=1;spacing=6;spacingTop=-4;" vertex="1" parent="WIyWlLk6GJQsqaUBKTNV-1">
          <mxGeometry x="280" y="160" width="100" height="80" as="geometry" />
        </mxCell>
        <mxCell id="K80prXzXv1RAaiCHoPPO-24" style="edgeStyle=orthogonalEdgeStyle;rounded=0;orthogonalLoop=1;jettySize=auto;html=1;exitX=0.5;exitY=1;exitDx=0;exitDy=0;" edge="1" parent="WIyWlLk6GJQsqaUBKTNV-1" source="K80prXzXv1RAaiCHoPPO-5" target="K80prXzXv1RAaiCHoPPO-6">
          <mxGeometry relative="1" as="geometry" />
        </mxCell>
        <mxCell id="K80prXzXv1RAaiCHoPPO-5" value="Accept Connection" style="rounded=1;whiteSpace=wrap;html=1;fontSize=12;glass=0;strokeWidth=1;shadow=0;" vertex="1" parent="WIyWlLk6GJQsqaUBKTNV-1">
          <mxGeometry x="440" y="180" width="120" height="40" as="geometry" />
        </mxCell>
        <mxCell id="K80prXzXv1RAaiCHoPPO-25" style="edgeStyle=orthogonalEdgeStyle;rounded=0;orthogonalLoop=1;jettySize=auto;html=1;exitX=0.5;exitY=1;exitDx=0;exitDy=0;entryX=0.5;entryY=0;entryDx=0;entryDy=0;" edge="1" parent="WIyWlLk6GJQsqaUBKTNV-1" source="K80prXzXv1RAaiCHoPPO-6" target="K80prXzXv1RAaiCHoPPO-7">
          <mxGeometry relative="1" as="geometry" />
        </mxCell>
        <mxCell id="K80prXzXv1RAaiCHoPPO-6" value="Process Client Request" style="rounded=1;whiteSpace=wrap;html=1;fontSize=12;glass=0;strokeWidth=1;shadow=0;" vertex="1" parent="WIyWlLk6GJQsqaUBKTNV-1">
          <mxGeometry x="440" y="270" width="120" height="40" as="geometry" />
        </mxCell>
        <mxCell id="K80prXzXv1RAaiCHoPPO-27" style="edgeStyle=orthogonalEdgeStyle;rounded=0;orthogonalLoop=1;jettySize=auto;html=1;exitX=0.5;exitY=1;exitDx=0;exitDy=0;curved=1;" edge="1" parent="WIyWlLk6GJQsqaUBKTNV-1" source="K80prXzXv1RAaiCHoPPO-7" target="K80prXzXv1RAaiCHoPPO-9">
          <mxGeometry relative="1" as="geometry" />
        </mxCell>
        <mxCell id="K80prXzXv1RAaiCHoPPO-28" style="edgeStyle=orthogonalEdgeStyle;rounded=0;orthogonalLoop=1;jettySize=auto;html=1;exitX=0;exitY=1;exitDx=0;exitDy=0;entryX=0.5;entryY=0;entryDx=0;entryDy=0;curved=1;" edge="1" parent="WIyWlLk6GJQsqaUBKTNV-1" source="K80prXzXv1RAaiCHoPPO-7" target="K80prXzXv1RAaiCHoPPO-11">
          <mxGeometry relative="1" as="geometry" />
        </mxCell>
        <mxCell id="K80prXzXv1RAaiCHoPPO-29" style="edgeStyle=orthogonalEdgeStyle;rounded=0;orthogonalLoop=1;jettySize=auto;html=1;exitX=0;exitY=0.5;exitDx=0;exitDy=0;entryX=0.5;entryY=0;entryDx=0;entryDy=0;curved=1;" edge="1" parent="WIyWlLk6GJQsqaUBKTNV-1" source="K80prXzXv1RAaiCHoPPO-7" target="K80prXzXv1RAaiCHoPPO-8">
          <mxGeometry relative="1" as="geometry" />
        </mxCell>
        <mxCell id="K80prXzXv1RAaiCHoPPO-30" style="edgeStyle=orthogonalEdgeStyle;rounded=0;orthogonalLoop=1;jettySize=auto;html=1;exitX=1;exitY=0.5;exitDx=0;exitDy=0;curved=1;" edge="1" parent="WIyWlLk6GJQsqaUBKTNV-1" source="K80prXzXv1RAaiCHoPPO-7" target="K80prXzXv1RAaiCHoPPO-26">
          <mxGeometry relative="1" as="geometry" />
        </mxCell>
        <mxCell id="K80prXzXv1RAaiCHoPPO-31" style="edgeStyle=orthogonalEdgeStyle;rounded=0;orthogonalLoop=1;jettySize=auto;html=1;exitX=1;exitY=1;exitDx=0;exitDy=0;entryX=0.5;entryY=0;entryDx=0;entryDy=0;curved=1;" edge="1" parent="WIyWlLk6GJQsqaUBKTNV-1" source="K80prXzXv1RAaiCHoPPO-7" target="K80prXzXv1RAaiCHoPPO-10">
          <mxGeometry relative="1" as="geometry" />
        </mxCell>
        <mxCell id="K80prXzXv1RAaiCHoPPO-7" value="HTTP Method?" style="rhombus;whiteSpace=wrap;html=1;shadow=0;fontFamily=Helvetica;fontSize=12;align=center;strokeWidth=1;spacing=6;spacingTop=-4;" vertex="1" parent="WIyWlLk6GJQsqaUBKTNV-1">
          <mxGeometry x="450" y="350" width="100" height="80" as="geometry" />
        </mxCell>
        <mxCell id="K80prXzXv1RAaiCHoPPO-8" value="Retrieve File or Static Content" style="rounded=1;whiteSpace=wrap;html=1;fontSize=12;glass=0;strokeWidth=1;shadow=0;" vertex="1" parent="WIyWlLk6GJQsqaUBKTNV-1">
          <mxGeometry x="125" y="480" width="120" height="40" as="geometry" />
        </mxCell>
        <mxCell id="K80prXzXv1RAaiCHoPPO-42" style="edgeStyle=orthogonalEdgeStyle;rounded=0;orthogonalLoop=1;jettySize=auto;html=1;exitX=0.5;exitY=1;exitDx=0;exitDy=0;curved=1;" edge="1" parent="WIyWlLk6GJQsqaUBKTNV-1" source="K80prXzXv1RAaiCHoPPO-9">
          <mxGeometry relative="1" as="geometry">
            <mxPoint x="521" y="610" as="targetPoint" />
            <Array as="points">
              <mxPoint x="495" y="565" />
              <mxPoint x="520" y="565" />
              <mxPoint x="520" y="610" />
            </Array>
          </mxGeometry>
        </mxCell>
        <mxCell id="K80prXzXv1RAaiCHoPPO-9" value="Handle File Upload" style="rounded=1;whiteSpace=wrap;html=1;fontSize=12;glass=0;strokeWidth=1;shadow=0;" vertex="1" parent="WIyWlLk6GJQsqaUBKTNV-1">
          <mxGeometry x="435" y="480" width="120" height="40" as="geometry" />
        </mxCell>
        <mxCell id="K80prXzXv1RAaiCHoPPO-10" value="Update Existing File" style="rounded=1;whiteSpace=wrap;html=1;fontSize=12;glass=0;strokeWidth=1;shadow=0;" vertex="1" parent="WIyWlLk6GJQsqaUBKTNV-1">
          <mxGeometry x="595" y="480" width="120" height="40" as="geometry" />
        </mxCell>
        <mxCell id="K80prXzXv1RAaiCHoPPO-11" value="Delete File" style="rounded=1;whiteSpace=wrap;html=1;fontSize=12;glass=0;strokeWidth=1;shadow=0;" vertex="1" parent="WIyWlLk6GJQsqaUBKTNV-1">
          <mxGeometry x="279" y="480" width="120" height="40" as="geometry" />
        </mxCell>
        <mxCell id="K80prXzXv1RAaiCHoPPO-12" value="Send Response to Client" style="rounded=1;whiteSpace=wrap;html=1;fontSize=12;glass=0;strokeWidth=1;shadow=0;" vertex="1" parent="WIyWlLk6GJQsqaUBKTNV-1">
          <mxGeometry x="440" y="610" width="120" height="40" as="geometry" />
        </mxCell>
        <mxCell id="K80prXzXv1RAaiCHoPPO-13" value="Close Client Connection" style="html=1;dashed=0;whiteSpace=wrap;shape=mxgraph.dfd.start" vertex="1" parent="WIyWlLk6GJQsqaUBKTNV-1">
          <mxGeometry x="450" y="710" width="100" height="40" as="geometry" />
        </mxCell>
        <mxCell id="K80prXzXv1RAaiCHoPPO-22" value="Yes" style="text;html=1;align=center;verticalAlign=middle;resizable=0;points=[];autosize=1;strokeColor=none;fillColor=none;" vertex="1" parent="WIyWlLk6GJQsqaUBKTNV-1">
          <mxGeometry x="380" y="168" width="40" height="30" as="geometry" />
        </mxCell>
        <mxCell id="K80prXzXv1RAaiCHoPPO-23" value="No" style="text;html=1;align=center;verticalAlign=middle;resizable=0;points=[];autosize=1;strokeColor=none;fillColor=none;" vertex="1" parent="WIyWlLk6GJQsqaUBKTNV-1">
          <mxGeometry x="340" y="225" width="40" height="30" as="geometry" />
        </mxCell>
        <mxCell id="K80prXzXv1RAaiCHoPPO-26" value="Send Error Response" style="rounded=1;whiteSpace=wrap;html=1;fontSize=12;glass=0;strokeWidth=1;shadow=0;" vertex="1" parent="WIyWlLk6GJQsqaUBKTNV-1">
          <mxGeometry x="755" y="480" width="120" height="40" as="geometry" />
        </mxCell>
        <mxCell id="K80prXzXv1RAaiCHoPPO-32" value="GET" style="text;html=1;align=center;verticalAlign=middle;resizable=0;points=[];autosize=1;strokeColor=none;fillColor=none;" vertex="1" parent="WIyWlLk6GJQsqaUBKTNV-1">
          <mxGeometry x="398" y="360" width="50" height="30" as="geometry" />
        </mxCell>
        <mxCell id="K80prXzXv1RAaiCHoPPO-33" value="POST" style="text;html=1;align=center;verticalAlign=middle;resizable=0;points=[];autosize=1;strokeColor=none;fillColor=none;" vertex="1" parent="WIyWlLk6GJQsqaUBKTNV-1">
          <mxGeometry x="490" y="420" width="60" height="30" as="geometry" />
        </mxCell>
        <mxCell id="K80prXzXv1RAaiCHoPPO-34" value="PUT" style="text;html=1;align=center;verticalAlign=middle;resizable=0;points=[];autosize=1;strokeColor=none;fillColor=none;" vertex="1" parent="WIyWlLk6GJQsqaUBKTNV-1">
          <mxGeometry x="550" y="388" width="50" height="30" as="geometry" />
        </mxCell>
        <mxCell id="K80prXzXv1RAaiCHoPPO-35" value="DELETE" style="text;html=1;align=center;verticalAlign=middle;resizable=0;points=[];autosize=1;strokeColor=none;fillColor=none;" vertex="1" parent="WIyWlLk6GJQsqaUBKTNV-1">
          <mxGeometry x="388" y="388" width="70" height="30" as="geometry" />
        </mxCell>
        <mxCell id="K80prXzXv1RAaiCHoPPO-36" value="ELSE" style="text;html=1;align=center;verticalAlign=middle;resizable=0;points=[];autosize=1;strokeColor=none;fillColor=none;" vertex="1" parent="WIyWlLk6GJQsqaUBKTNV-1">
          <mxGeometry x="550" y="360" width="50" height="30" as="geometry" />
        </mxCell>
        <mxCell id="K80prXzXv1RAaiCHoPPO-40" style="edgeStyle=orthogonalEdgeStyle;rounded=0;orthogonalLoop=1;jettySize=auto;html=1;exitX=0.5;exitY=1;exitDx=0;exitDy=0;entryX=0.167;entryY=-0.025;entryDx=0;entryDy=0;entryPerimeter=0;curved=1;" edge="1" parent="WIyWlLk6GJQsqaUBKTNV-1" source="K80prXzXv1RAaiCHoPPO-8" target="K80prXzXv1RAaiCHoPPO-12">
          <mxGeometry relative="1" as="geometry" />
        </mxCell>
        <mxCell id="K80prXzXv1RAaiCHoPPO-41" style="edgeStyle=orthogonalEdgeStyle;rounded=0;orthogonalLoop=1;jettySize=auto;html=1;exitX=0.5;exitY=1;exitDx=0;exitDy=0;entryX=0.408;entryY=0.025;entryDx=0;entryDy=0;entryPerimeter=0;curved=1;" edge="1" parent="WIyWlLk6GJQsqaUBKTNV-1" source="K80prXzXv1RAaiCHoPPO-11" target="K80prXzXv1RAaiCHoPPO-12">
          <mxGeometry relative="1" as="geometry">
            <Array as="points">
              <mxPoint x="339" y="550" />
              <mxPoint x="489" y="550" />
            </Array>
          </mxGeometry>
        </mxCell>
        <mxCell id="K80prXzXv1RAaiCHoPPO-43" style="edgeStyle=orthogonalEdgeStyle;rounded=0;orthogonalLoop=1;jettySize=auto;html=1;exitX=0.5;exitY=1;exitDx=0;exitDy=0;curved=1;" edge="1" parent="WIyWlLk6GJQsqaUBKTNV-1" source="K80prXzXv1RAaiCHoPPO-10">
          <mxGeometry relative="1" as="geometry">
            <mxPoint x="547" y="610" as="targetPoint" />
          </mxGeometry>
        </mxCell>
        <mxCell id="K80prXzXv1RAaiCHoPPO-44" style="edgeStyle=orthogonalEdgeStyle;rounded=0;orthogonalLoop=1;jettySize=auto;html=1;exitX=0.5;exitY=1;exitDx=0;exitDy=0;entryX=0.5;entryY=0.5;entryDx=0;entryDy=-20;entryPerimeter=0;" edge="1" parent="WIyWlLk6GJQsqaUBKTNV-1" source="K80prXzXv1RAaiCHoPPO-12" target="K80prXzXv1RAaiCHoPPO-13">
          <mxGeometry relative="1" as="geometry" />
        </mxCell>
      </root>
    </mxGraphModel>
  </diagram>
</mxfile>
